<svg width="28" height="28" viewBox="0 0 28 28" fill="none" xmlns="http://www.w3.org/2000/svg">
<path d="M14.6781 13.75L10.45 17.9781L12.375 19.9375L18.5625 13.75L12.375 7.5625L10.45 9.52188L14.6781 13.75ZM13.75 27.5C11.8479 27.5 10.0604 27.1391 8.3875 26.4172C6.71458 25.6953 5.25938 24.7156 4.02187 23.4781C2.78437 22.2406 1.80469 20.7854 1.08281 19.1125C0.360937 17.4396 0 15.6521 0 13.75C0 11.8479 0.360937 10.0604 1.08281 8.3875C1.80469 6.71458 2.78437 5.25938 4.02187 4.02187C5.25938 2.78437 6.71458 1.80469 8.3875 1.08281C10.0604 0.360937 11.8479 0 13.75 0C15.6521 0 17.4396 0.360937 19.1125 1.08281C20.7854 1.80469 22.2406 2.78437 23.4781 4.02187C24.7156 5.25938 25.6953 6.71458 26.4172 8.3875C27.1391 10.0604 27.5 11.8479 27.5 13.75C27.5 15.6521 27.1391 17.4396 26.4172 19.1125C25.6953 20.7854 24.7156 22.2406 23.4781 23.4781C22.2406 24.7156 20.7854 25.6953 19.1125 26.4172C17.4396 27.1391 15.6521 27.5 13.75 27.5ZM13.75 24.75C16.8208 24.75 19.4219 23.6844 21.5531 21.5531C23.6844 19.4219 24.75 16.8208 24.75 13.75C24.75 10.6792 23.6844 8.07813 21.5531 5.94688C19.4219 3.81563 16.8208 2.75 13.75 2.75C10.6792 2.75 8.07813 3.81563 5.94688 5.94688C3.81563 8.07813 2.75 10.6792 2.75 13.75C2.75 16.8208 3.81563 19.4219 5.94688 21.5531C8.07813 23.6844 10.6792 24.75 13.75 24.75Z" fill="#F2EB21"/>
</svg>
