<?xml version="1.0" encoding="utf-8"?>
<!-- Generator: Adobe Illustrator 16.0.0, SVG Export Plug-In . SVG Version: 6.00 Build 0)  -->
<!DOCTYPE svg PUBLIC "-//W3C//DTD SVG 1.1//EN" "http://www.w3.org/Graphics/SVG/1.1/DTD/svg11.dtd">
<svg version="1.1" id="Layer_1" xmlns="http://www.w3.org/2000/svg" xmlns:xlink="http://www.w3.org/1999/xlink" x="0px" y="0px"
	 width="300px" height="89.033px" viewBox="0 0 300 89.033" enable-background="new 0 0 300 89.033" xml:space="preserve">
<g transform="matrix(1, 0, 0, 1, -400, -190.028076)">
	<path fill="#010101" d="M688.889,279.061H411.111c-6.111,0-11.111-5.008-11.111-11.129v-66.774c0-6.121,5-11.129,11.111-11.129
		h277.777c6.111,0,11.111,5.008,11.111,11.129v66.774C700,274.053,695,279.061,688.889,279.061"/>
	<path fill="#A7A6A6" d="M688.889,190.028H411.111c-6.111,0-11.111,5.008-11.111,11.129v66.774c0,6.121,5,11.129,11.111,11.129
		h277.777c6.111,0,11.111-5.008,11.111-11.129v-66.774C700,195.036,695,190.028,688.889,190.028 M688.889,191.809
		c5.147,0,9.334,4.194,9.334,9.349v66.774c0,5.154-4.188,9.35-9.334,9.35H411.111c-5.146,0-9.334-4.195-9.334-9.35v-66.774
		c0-5.154,4.188-9.349,9.334-9.349H688.889"/>
	<path fill="#FFFFFF" d="M462.496,235.479c0.055-4.228,2.271-8.134,5.876-10.351c-2.283-3.261-5.971-5.255-9.949-5.377
		c-4.188-0.441-8.246,2.503-10.378,2.503c-2.177,0-5.459-2.46-8.997-2.388c-4.651,0.149-8.887,2.732-11.15,6.801
		c-4.821,8.348-1.224,20.616,3.396,27.361c2.309,3.307,5.011,6.996,8.543,6.863c3.458-0.142,4.749-2.203,8.925-2.203
		c4.133,0,5.345,2.203,8.952,2.121c3.709-0.06,6.048-3.318,8.276-6.653c1.66-2.353,2.937-4.956,3.784-7.71
		C465.368,244.582,462.501,240.265,462.496,235.479z M455.688,215.311c2.021-2.428,3.019-5.549,2.777-8.7
		c-3.092,0.324-5.946,1.802-7.995,4.136c-2.026,2.306-3.052,5.32-2.852,8.381C450.75,219.16,453.724,217.754,455.688,215.311z
		 M506.207,252.528h-11.802l-2.832,8.369h-4.998l11.176-30.957h5.192l11.176,30.957h-5.083L506.207,252.528z M495.627,248.666h9.354
		l-4.609-13.579h-0.13L495.627,248.666z M538.258,249.612c0,7.015-3.754,11.52-9.418,11.52c-2.93,0.154-5.687-1.379-7.103-3.949
		h-0.106v11.181h-4.633v-30.037h4.485v3.755h0.085c1.478-2.553,4.237-4.086,7.187-3.991
		C534.481,238.089,538.258,242.618,538.258,249.612z M533.496,249.612c0-4.57-2.36-7.574-5.965-7.574
		c-3.54,0-5.921,3.068-5.921,7.574c0,4.549,2.381,7.593,5.921,7.593C531.136,257.204,533.496,254.223,533.496,249.612z
		 M563.1,249.612c0,7.015-3.754,11.52-9.418,11.52c-2.93,0.154-5.687-1.379-7.103-3.949h-0.107v11.181h-4.632v-30.037h4.482v3.755
		h0.088c1.476-2.553,4.237-4.086,7.184-3.991C559.323,238.089,563.1,242.618,563.1,249.612z M558.338,249.612
		c0-4.57-2.363-7.574-5.965-7.574c-3.54,0-5.921,3.068-5.921,7.574c0,4.549,2.381,7.593,5.921,7.593
		C555.975,257.204,558.338,254.223,558.338,249.612z M579.518,252.271c0.345,3.069,3.326,5.085,7.401,5.085
		c3.904,0,6.714-2.016,6.714-4.783c0-2.402-1.695-3.842-5.706-4.828l-4.014-0.965c-5.684-1.374-8.321-4.033-8.321-8.347
		c0-5.342,4.654-9.009,11.263-9.009c6.541,0,11.026,3.667,11.178,9.009h-4.677c-0.281-3.089-2.834-4.954-6.565-4.954
		c-3.732,0-6.288,1.885-6.288,4.632c0,2.188,1.634,3.478,5.622,4.462l3.41,0.838c6.353,1.501,8.992,4.054,8.992,8.581
		c0,5.793-4.614,9.42-11.951,9.42c-6.865,0-11.5-3.543-11.801-9.142H579.518z M608.525,232.983v5.342h4.29v3.669h-4.29v12.443
		c0,1.932,0.857,2.834,2.744,2.834c0.511-0.01,1.02-0.045,1.523-0.107v3.647c-0.848,0.157-1.71,0.229-2.572,0.212
		c-4.57,0-6.353-1.715-6.353-6.094v-12.936h-3.28v-3.669h3.28v-5.342H608.525z M615.301,249.612c0-7.1,4.183-11.563,10.704-11.563
		c6.544,0,10.707,4.463,10.707,11.563c0,7.121-4.141,11.564-10.707,11.564C619.441,261.176,615.301,256.733,615.301,249.612z
		 M631.993,249.612c0-4.871-2.233-7.746-5.988-7.746c-3.754,0-5.982,2.896-5.982,7.746c0,4.891,2.229,7.744,5.982,7.744
		C629.76,257.356,631.993,254.502,631.993,249.612z M640.531,238.325h4.42v3.842h0.107c0.615-2.474,2.882-4.175,5.43-4.078
		c0.533-0.003,1.064,0.058,1.585,0.175v4.332c-0.673-0.207-1.376-0.302-2.081-0.279c-2.859-0.117-5.15,2.346-4.826,5.193v13.387
		h-4.635V238.325z M673.436,254.266c-0.624,4.098-4.614,6.91-9.72,6.91c-6.566,0-10.64-4.4-10.64-11.458
		c0-7.079,4.096-11.669,10.444-11.669c6.245,0,10.172,4.287,10.172,11.131v1.588h-15.94v0.279c-0.313,3.525,2.536,6.523,6.07,6.395
		c2.249,0.209,4.368-1.08,5.213-3.176H673.436z M657.772,247.53h11.285c0.175-3.156-2.376-5.797-5.537-5.729
		C660.348,241.783,657.765,244.356,657.772,247.53z"/>
	<path fill="#FFFFFF" d="M485.33,217.886v-16.356h5.063c1.322,0,2.536,0.209,3.641,0.628c1.104,0.404,2.054,0.973,2.847,1.706
		c1.665,1.556,2.497,3.492,2.497,5.811c0,1.197-0.233,2.311-0.7,3.343c-0.451,0.987-1.089,1.855-1.913,2.603
		c-1.728,1.511-3.851,2.266-6.371,2.266H485.33z M487.127,203.146v13.125h3.197c1.415,0,2.667-0.285,3.757-0.853
		c1.12-0.568,1.968-1.339,2.543-2.311c0.607-0.987,0.91-2.117,0.91-3.388c0-1.885-0.653-3.456-1.96-4.712
		c-1.291-1.241-3.041-1.862-5.25-1.862H487.127z M502.409,203.617c-0.249-0.269-0.373-0.561-0.373-0.875
		c0-0.314,0.124-0.605,0.373-0.875c0.249-0.239,0.552-0.359,0.91-0.359c0.342,0,0.638,0.12,0.887,0.359s0.373,0.531,0.373,0.875
		s-0.124,0.636-0.373,0.875s-0.545,0.359-0.887,0.359C502.961,203.976,502.658,203.856,502.409,203.617z M502.456,217.886v-11.151
		h1.703v11.151H502.456z M515.635,214.723c0,1.002-0.396,1.802-1.189,2.4c-0.794,0.628-1.766,0.942-2.917,0.942
		c-1.696,0-2.933-0.538-3.711-1.615c-0.389-0.508-0.622-1.077-0.7-1.705l1.541-0.381c0.108,0.613,0.4,1.147,0.876,1.603
		c0.474,0.457,1.131,0.686,1.971,0.686c0.638,0,1.205-0.172,1.703-0.516c0.467-0.314,0.7-0.755,0.7-1.324
		c0-0.449-0.187-0.808-0.561-1.077c-0.342-0.269-0.785-0.463-1.33-0.583l-1.773-0.382c-1.929-0.404-2.894-1.376-2.894-2.917
		c0-1.151,0.482-2.012,1.447-2.58c0.824-0.494,1.656-0.74,2.497-0.74c1.587,0.015,2.745,0.508,3.477,1.48
		c0.358,0.494,0.591,0.995,0.7,1.503l-1.54,0.426c-0.109-0.434-0.334-0.853-0.677-1.256c-0.42-0.479-1.073-0.718-1.96-0.718
		c-0.638,0-1.167,0.172-1.587,0.516c-0.436,0.329-0.653,0.748-0.653,1.256c0,0.748,0.56,1.257,1.68,1.526l1.867,0.404
		c0.855,0.194,1.575,0.546,2.16,1.055C515.344,213.235,515.635,213.9,515.635,214.723z M530.267,212.3
		c0,1.018-0.226,1.959-0.677,2.827s-1.089,1.571-1.913,2.109c-0.841,0.539-1.798,0.808-2.871,0.808
		c-1.897,0-3.383-0.815-4.457-2.445v7.785h-1.703v-16.647h1.656v2.423c1.198-1.75,2.699-2.625,4.504-2.625
		c1.649,0,2.979,0.598,3.99,1.795C529.776,209.495,530.267,210.819,530.267,212.3z M524.479,216.63c1.213,0,2.201-0.412,2.963-1.234
		c0.731-0.838,1.098-1.855,1.098-3.052c0-1.69-0.631-2.939-1.891-3.747c-0.606-0.404-1.33-0.606-2.17-0.606
		c-1.151-0.015-2.14,0.411-2.964,1.279s-1.221,1.87-1.19,3.007c0,1.196,0.39,2.213,1.167,3.051
		C522.286,216.196,523.281,216.63,524.479,216.63z M538.366,218.089c-1.073,0-2.076-0.254-3.01-0.763
		c-0.918-0.523-1.634-1.219-2.147-2.086c-0.528-0.868-0.793-1.832-0.793-2.895c0-1.66,0.575-3.036,1.727-4.128
		c1.151-1.122,2.575-1.683,4.271-1.683c1.649-0.03,3.068,0.526,4.258,1.67c1.19,1.145,1.771,2.503,1.739,4.074
		c0.031,1.615-0.552,2.995-1.75,4.138C541.462,217.561,540.031,218.118,538.366,218.089z M538.413,216.63
		c1.214,0,2.232-0.419,3.057-1.256c0.794-0.838,1.19-1.847,1.19-3.029c0-1.196-0.404-2.229-1.213-3.096
		c-0.825-0.853-1.852-1.279-3.081-1.279c-1.229,0-2.24,0.418-3.033,1.256c-0.794,0.837-1.19,1.854-1.19,3.051
		c-0.031,1.181,0.369,2.206,1.201,3.074C536.177,216.219,537.2,216.645,538.413,216.63z M557.427,217.886h-1.703v-6.484
		c0-1.032-0.272-1.855-0.817-2.468s-1.338-0.92-2.38-0.92c-1.012,0-1.844,0.337-2.497,1.01c-0.638,0.688-0.957,1.525-0.957,2.513
		v6.35h-1.703v-11.151h1.656v2.042c0.934-1.495,2.271-2.243,4.015-2.243c1.368,0,2.449,0.403,3.243,1.211
		c0.762,0.853,1.144,1.937,1.144,3.253V217.886z M563.517,201.239h2.054l-2.8,3.59h-1.61L563.517,201.239z M561.113,217.886v-11.151
		h1.704v11.151H561.113z M571.967,217.886h-1.796l-4.924-11.151h1.866l3.967,9.356l4.037-9.356h1.797L571.967,217.886z
		 M588.696,212.816h-9.381c0.063,1.092,0.49,1.997,1.283,2.714c0.778,0.733,1.735,1.1,2.87,1.1c0.888,0,1.642-0.207,2.264-0.619
		c0.622-0.41,1.065-0.997,1.33-1.76l1.494,0.449c-0.327,1.047-0.957,1.877-1.891,2.491c-0.965,0.598-2.022,0.897-3.174,0.897
		c-1.089,0-2.092-0.262-3.01-0.786s-1.618-1.227-2.101-2.109c-0.514-0.868-0.77-1.833-0.77-2.895c0-1.017,0.24-1.959,0.723-2.827
		c0.451-0.883,1.128-1.593,2.03-2.131c0.871-0.539,1.836-0.808,2.894-0.808c1.167,0,2.163,0.254,2.987,0.763
		c0.84,0.494,1.462,1.174,1.866,2.042c0.405,0.823,0.607,1.802,0.607,2.939C588.72,212.472,588.712,212.652,588.696,212.816z
		 M579.339,211.425h7.677c-0.108-1.017-0.497-1.855-1.166-2.513c-0.654-0.628-1.518-0.942-2.591-0.942
		c-0.979,0-1.844,0.336-2.59,1.009C579.922,209.682,579.479,210.498,579.339,211.425z M591.634,217.886v-17.029h1.704v17.029
		H591.634z M613.287,217.886h-1.704v-6.484c0-1.032-0.271-1.855-0.816-2.468s-1.338-0.92-2.38-0.92c-1.012,0-1.844,0.337-2.497,1.01
		c-0.638,0.688-0.957,1.525-0.957,2.513v6.35h-1.703v-11.151h1.656v2.042c0.934-1.495,2.271-2.243,4.014-2.243
		c1.369,0,2.45,0.403,3.244,1.211c0.762,0.853,1.144,1.937,1.144,3.253V217.886z M620.754,211.447h3.221v-0.74
		c0-1.81-0.988-2.715-2.964-2.715c-0.948,0-1.68,0.247-2.193,0.74c-0.467,0.449-0.747,0.958-0.84,1.526l-1.634-0.336
		c0.016-0.314,0.171-0.71,0.467-1.189c0.296-0.478,0.685-0.905,1.167-1.278c0.824-0.614,1.851-0.92,3.08-0.92
		c2.116,0,3.523,0.77,4.224,2.311c0.233,0.523,0.35,1.137,0.35,1.84v3.141c0,1.825,0.063,3.179,0.188,4.061h-1.681
		c-0.108-0.568-0.163-1.219-0.163-1.952c-0.98,1.436-2.287,2.154-3.92,2.154c-1.167,0-2.101-0.314-2.801-0.942
		c-0.731-0.613-1.097-1.399-1.097-2.356v-0.112c0-1.107,0.462-1.922,1.387-2.445C618.471,211.709,619.541,211.447,620.754,211.447z
		 M623.975,213.175v-0.381h-3.244c-0.715,0-1.346,0.127-1.89,0.381c-0.653,0.27-0.98,0.763-0.98,1.481
		c0,0.613,0.241,1.1,0.724,1.458c0.467,0.359,1.058,0.539,1.773,0.539c1.012,0,1.875-0.329,2.591-0.987
		C623.632,215.037,623.975,214.207,623.975,213.175z"/>
</g>
</svg>
