<?xml version="1.0" encoding="utf-8"?>
<!-- Generator: Adobe Illustrator 16.0.0, SVG Export Plug-In . SVG Version: 6.00 Build 0)  -->
<!DOCTYPE svg PUBLIC "-//W3C//DTD SVG 1.1//EN" "http://www.w3.org/Graphics/SVG/1.1/DTD/svg11.dtd">
<svg version="1.1" id="Layer_1" xmlns="http://www.w3.org/2000/svg" xmlns:xlink="http://www.w3.org/1999/xlink" x="0px" y="0px"
	 width="31.355px" height="9.289px" viewBox="0 0 31.355 9.289" enable-background="new 0 0 31.355 9.289" xml:space="preserve">
<g>
	<path fill="#010101" d="M30.193,9.289H1.161C0.511,9.289,0,8.779,0,8.129V1.16C0,0.51,0.511,0,1.161,0h29.032
		c0.65,0,1.162,0.51,1.162,1.16v6.969C31.355,8.756,30.843,9.289,30.193,9.289z"/>
</g>
<g>
	<g>
		<path fill="#A8A6A6" d="M30.193,0.186c0.535,0,0.977,0.441,0.977,0.975v6.969c0,0.533-0.441,0.975-0.977,0.975H1.161
			c-0.534,0-0.976-0.441-0.976-0.975V1.16c0-0.533,0.441-0.975,0.976-0.975H30.193 M30.193,0H1.161C0.511,0,0,0.51,0,1.16v6.969
			c0,0.65,0.511,1.16,1.161,1.16h29.032c0.65,0,1.162-0.51,1.162-1.16V1.16C31.355,0.533,30.843,0,30.193,0L30.193,0z"/>
	</g>
</g>
<path fill="#FFFFFF" d="M15.816,5.063c-0.557,0-0.998,0.418-0.998,0.999c0,0.558,0.441,0.999,0.998,0.999c0.559,0,1-0.418,1-0.999
	C16.816,5.457,16.375,5.063,15.816,5.063z M15.816,6.643c-0.301,0-0.557-0.256-0.557-0.604s0.256-0.604,0.557-0.604
	c0.303,0,0.559,0.232,0.559,0.604C16.375,6.387,16.119,6.643,15.816,6.643z M13.657,5.063c-0.558,0-0.999,0.418-0.999,0.999
	c0,0.558,0.441,0.999,0.999,0.999s0.999-0.418,0.999-0.999C14.656,5.457,14.214,5.063,13.657,5.063z M13.657,6.643
	c-0.302,0-0.558-0.256-0.558-0.604s0.256-0.604,0.558-0.604s0.558,0.232,0.558,0.604C14.214,6.387,13.958,6.643,13.657,6.643z
	 M11.079,5.365v0.418h0.999c-0.023,0.231-0.117,0.418-0.232,0.533c-0.14,0.14-0.371,0.303-0.767,0.303
	c-0.627,0-1.092-0.488-1.092-1.115s0.487-1.115,1.092-1.115c0.325,0,0.581,0.14,0.767,0.303l0.302-0.303
	c-0.255-0.232-0.581-0.418-1.046-0.418c-0.836,0-1.555,0.697-1.555,1.533s0.719,1.533,1.555,1.533c0.465,0,0.791-0.14,1.068-0.441
	c0.279-0.279,0.373-0.674,0.373-0.976c0-0.093,0-0.187-0.023-0.255H11.079z M21.623,5.689c-0.092-0.232-0.324-0.627-0.836-0.627
	c-0.511,0-0.929,0.395-0.929,0.999c0,0.558,0.418,0.999,0.976,0.999c0.441,0,0.72-0.279,0.813-0.441l-0.324-0.232
	c-0.117,0.162-0.256,0.278-0.488,0.278s-0.371-0.093-0.488-0.302l1.324-0.558L21.623,5.689z M20.276,6.015
	c0-0.372,0.302-0.581,0.511-0.581c0.163,0,0.326,0.094,0.372,0.209L20.276,6.015z M19.185,6.967h0.44V4.064h-0.44V6.967z
	 M18.488,5.271L18.488,5.271c-0.116-0.116-0.303-0.232-0.534-0.232c-0.487,0-0.952,0.441-0.952,0.999s0.441,0.976,0.952,0.976
	c0.231,0,0.418-0.116,0.511-0.232h0.023V6.92c0,0.373-0.209,0.582-0.534,0.582c-0.256,0-0.441-0.187-0.487-0.35l-0.372,0.163
	c0.116,0.255,0.395,0.581,0.882,0.581c0.512,0,0.93-0.303,0.93-1.022V5.109h-0.418V5.271z M17.976,6.643
	c-0.301,0-0.557-0.256-0.557-0.604s0.256-0.604,0.557-0.604c0.303,0,0.535,0.256,0.535,0.604S18.279,6.643,17.976,6.643z
	 M23.644,4.064h-1.045v2.902h0.441V5.875h0.604c0.487,0,0.952-0.348,0.952-0.905S24.131,4.064,23.644,4.064z M23.667,5.457h-0.627
	V4.459h0.627c0.324,0,0.51,0.278,0.51,0.487C24.155,5.202,23.968,5.457,23.667,5.457z M26.337,5.039c-0.324,0-0.65,0.14-0.766,0.441
	l0.395,0.162c0.093-0.162,0.232-0.209,0.395-0.209c0.232,0,0.441,0.141,0.465,0.372v0.023c-0.07-0.046-0.256-0.116-0.441-0.116
	c-0.418,0-0.836,0.232-0.836,0.65c0,0.395,0.348,0.65,0.72,0.65c0.302,0,0.441-0.14,0.558-0.279h0.023v0.232h0.418V5.852
	C27.22,5.342,26.826,5.039,26.337,5.039z M26.292,6.643c-0.14,0-0.349-0.07-0.349-0.256c0-0.232,0.256-0.303,0.465-0.303
	c0.186,0,0.279,0.047,0.395,0.094C26.755,6.456,26.524,6.643,26.292,6.643z M28.73,5.109l-0.488,1.254h-0.022l-0.511-1.254h-0.465
	l0.767,1.765L27.569,7.85h0.441l1.185-2.74H28.73z M24.828,6.967h0.441V4.064h-0.441V6.967z"/>
<g>
	<g>
		<g>
			<path fill="#5EC9F3" d="M2.416,1.741C2.345,1.834,2.322,1.928,2.322,2.09v5.109c0,0.14,0.047,0.256,0.117,0.325l0.023,0.023
				l2.879-2.88V4.645V4.621L2.416,1.741L2.416,1.741z"/>
			
				<linearGradient id="SVGID_1_" gradientUnits="userSpaceOnUse" x1="1189.7104" y1="-1621.1123" x2="1165.5243" y2="-1621.1123" gradientTransform="matrix(0.2323 0 0 -0.2323 -269.0996 -371.8608)">
				<stop  offset="0" style="stop-color:#FDE000"/>
				<stop  offset="0.1941" style="stop-color:#FBD011"/>
				<stop  offset="0.5469" style="stop-color:#F8B318"/>
				<stop  offset="0.8279" style="stop-color:#FAA31D"/>
				<stop  offset="1" style="stop-color:#F99B1F"/>
			</linearGradient>
			<path fill="url(#SVGID_1_)" d="M6.271,5.643L5.318,4.691V4.645V4.621l0.953-0.952l0.023,0.023l1.138,0.65
				c0.325,0.186,0.325,0.487,0,0.673L6.271,5.643L6.271,5.643z"/>
			
				<linearGradient id="SVGID_2_" gradientUnits="userSpaceOnUse" x1="1183.437" y1="-1623.3525" x2="1160.6949" y2="-1646.0946" gradientTransform="matrix(0.2323 0 0 -0.2323 -269.0996 -371.8608)">
				<stop  offset="0" style="stop-color:#EF4647"/>
				<stop  offset="1" style="stop-color:#C61C6D"/>
			</linearGradient>
			<path fill="url(#SVGID_2_)" d="M6.294,5.62L5.318,4.645L2.416,7.548C2.531,7.664,2.694,7.664,2.904,7.57L6.294,5.62"/>
			
				<linearGradient id="SVGID_3_" gradientUnits="userSpaceOnUse" x1="1160.563" y1="-1595.9536" x2="1179.1333" y2="-1614.5239" gradientTransform="matrix(0.2323 0 0 -0.2323 -269.0996 -371.8608)">
				<stop  offset="0" style="stop-color:#289F70"/>
				<stop  offset="0.3168" style="stop-color:#4DAA6D"/>
				<stop  offset="0.7398" style="stop-color:#6ABA6B"/>
				<stop  offset="1" style="stop-color:#74C26A"/>
			</linearGradient>
			<path fill="url(#SVGID_3_)" d="M6.294,3.669L2.904,1.741c-0.21-0.116-0.373-0.093-0.488,0.023l2.902,2.88L6.294,3.669z"/>
		</g>
	</g>
</g>
<g>
	<path fill="#FFFFFF" stroke="#FFFFFF" stroke-width="0.2" stroke-miterlimit="10" d="M9.592,3.019V1.625h0.418
		c0.209,0,0.395,0.07,0.511,0.186c0.14,0.14,0.186,0.303,0.186,0.512s-0.069,0.371-0.186,0.511c-0.139,0.14-0.302,0.186-0.511,0.186
		H9.592z M9.778,2.855h0.255c0.163,0,0.279-0.046,0.372-0.139s0.14-0.232,0.14-0.395c0-0.163-0.047-0.303-0.14-0.395
		c-0.093-0.094-0.231-0.141-0.372-0.141H9.778V2.855z"/>
	<path fill="#FFFFFF" stroke="#FFFFFF" stroke-width="0.2" stroke-miterlimit="10" d="M10.986,3.019V1.625h0.186v1.394H10.986z"/>
	<path fill="#FFFFFF" stroke="#FFFFFF" stroke-width="0.2" stroke-miterlimit="10" d="M11.869,3.042
		c-0.094,0-0.209-0.023-0.303-0.093c-0.092-0.07-0.162-0.162-0.186-0.279l0.162-0.069c0.023,0.069,0.07,0.14,0.117,0.187
		c0.069,0.046,0.139,0.068,0.209,0.068c0.069,0,0.139-0.022,0.209-0.068c0.046-0.047,0.092-0.094,0.092-0.163
		s-0.022-0.14-0.092-0.187c-0.047-0.046-0.14-0.092-0.256-0.115c-0.116-0.047-0.209-0.094-0.279-0.14
		c-0.068-0.069-0.092-0.14-0.092-0.232s0.046-0.186,0.115-0.255c0.07-0.07,0.186-0.117,0.303-0.117c0.115,0,0.209,0.023,0.278,0.094
		c0.069,0.069,0.116,0.115,0.14,0.186l-0.163,0.07c-0.022-0.047-0.046-0.094-0.093-0.117c-0.047-0.046-0.116-0.046-0.186-0.046
		c-0.07,0-0.116,0.022-0.186,0.046c-0.023,0.047-0.047,0.094-0.047,0.163c0,0.046,0.023,0.093,0.07,0.14
		c0.046,0.046,0.115,0.069,0.209,0.092c0.068,0.023,0.115,0.047,0.162,0.07s0.093,0.047,0.139,0.094
		c0.047,0.022,0.094,0.068,0.117,0.139c0.022,0.047,0.046,0.116,0.046,0.186c0,0.07-0.023,0.14-0.046,0.186
		c-0.023,0.047-0.07,0.094-0.117,0.117c-0.046,0.022-0.092,0.046-0.139,0.068C11.984,3.042,11.938,3.042,11.869,3.042z"/>
	<path fill="#FFFFFF" stroke="#FFFFFF" stroke-width="0.2" stroke-miterlimit="10" d="M12.774,3.019h-0.186V1.625h0.464
		c0.117,0,0.209,0.047,0.303,0.116c0.093,0.069,0.139,0.187,0.139,0.302c0,0.116-0.046,0.209-0.139,0.303
		c-0.094,0.069-0.186,0.115-0.303,0.115h-0.278V3.019z M12.774,2.275h0.302c0.07,0,0.14-0.023,0.186-0.07
		c0.047-0.046,0.07-0.115,0.07-0.162c0-0.069-0.023-0.115-0.07-0.162c-0.046-0.047-0.115-0.07-0.186-0.07h-0.302V2.275z"/>
	<path fill="#FFFFFF" stroke="#FFFFFF" stroke-width="0.2" stroke-miterlimit="10" d="M14.865,2.833
		c-0.14,0.14-0.303,0.209-0.512,0.209s-0.371-0.069-0.511-0.209s-0.209-0.302-0.209-0.511s0.069-0.372,0.209-0.512
		c0.14-0.139,0.302-0.209,0.511-0.209s0.372,0.07,0.512,0.209c0.139,0.14,0.209,0.303,0.209,0.512S15.003,2.693,14.865,2.833z
		 M13.982,2.717c0.093,0.093,0.232,0.162,0.371,0.162c0.14,0,0.279-0.046,0.372-0.162c0.093-0.093,0.163-0.232,0.163-0.395
		c0-0.163-0.047-0.303-0.163-0.395c-0.093-0.094-0.232-0.163-0.372-0.163c-0.139,0-0.278,0.046-0.371,0.163
		C13.888,2.02,13.82,2.159,13.82,2.322C13.82,2.484,13.888,2.624,13.982,2.717z"/>
	<path fill="#FFFFFF" stroke="#FFFFFF" stroke-width="0.2" stroke-miterlimit="10" d="M15.33,3.019V1.625h0.209l0.673,1.092l0,0
		V2.438V1.625h0.187v1.394h-0.187l-0.72-1.138l0,0v0.278v0.859H15.33z"/>
	<path fill="#FFFFFF" stroke="#FFFFFF" stroke-width="0.2" stroke-miterlimit="10" d="M16.722,3.019V1.625h0.186v1.394H16.722z
		 M16.884,1.51h-0.162l0.094-0.256h0.186L16.884,1.51z"/>
	<path fill="#FFFFFF" stroke="#FFFFFF" stroke-width="0.2" stroke-miterlimit="10" d="M17.558,3.019l-0.487-1.394h0.209l0.372,1.139
		l0,0l0.395-1.139h0.209l-0.512,1.394H17.558z"/>
	<path fill="#FFFFFF" stroke="#FFFFFF" stroke-width="0.2" stroke-miterlimit="10" d="M19.277,1.787H18.65v0.441h0.581v0.163H18.65
		v0.441h0.627v0.186h-0.813V1.625h0.813V1.787z"/>
	<path fill="#FFFFFF" stroke="#FFFFFF" stroke-width="0.2" stroke-miterlimit="10" d="M19.556,3.019V1.625h0.186v1.23h0.604v0.163
		H19.556z"/>
	<path fill="#FFFFFF" stroke="#FFFFFF" stroke-width="0.2" stroke-miterlimit="10" d="M21.042,3.019V1.625h0.209l0.674,1.092l0,0
		V2.438V1.625h0.186v1.394h-0.186l-0.721-1.138l0,0v0.278v0.859H21.042z"/>
	<path fill="#FFFFFF" stroke="#FFFFFF" stroke-width="0.2" stroke-miterlimit="10" d="M23.574,2.833
		c-0.139,0.14-0.302,0.209-0.511,0.209s-0.372-0.069-0.511-0.209c-0.14-0.14-0.209-0.302-0.209-0.511s0.069-0.372,0.209-0.512
		c0.139-0.139,0.302-0.209,0.511-0.209s0.372,0.07,0.511,0.209c0.14,0.14,0.209,0.303,0.209,0.512
		C23.759,2.531,23.69,2.693,23.574,2.833z M22.668,2.717c0.093,0.093,0.231,0.162,0.372,0.162c0.139,0,0.277-0.046,0.371-0.162
		c0.093-0.093,0.162-0.232,0.162-0.395c0-0.163-0.047-0.303-0.162-0.395c-0.094-0.094-0.232-0.163-0.371-0.163
		c-0.141,0-0.279,0.046-0.372,0.163c-0.093,0.092-0.163,0.231-0.163,0.395C22.505,2.484,22.576,2.624,22.668,2.717z"/>
</g>
</svg>
